<svg width="10" height="13" viewBox="0 0 10 13" fill="none" xmlns="http://www.w3.org/2000/svg">
    <path d="M1.4375 3L3.5 6.32812H3.5625L5.625 3H6.76562L4.25 7L6.76562 11H5.625L3.5625 7.73438H3.5L1.4375 11H0.296875L2.875 7L0.296875 3H1.4375Z" fill="black"/>
    <path d="M7.30114 6V5.74432L8.26136 4.69318C8.37405 4.57008 8.46686 4.46307 8.53977 4.37216C8.61269 4.2803 8.66667 4.19413 8.7017 4.11364C8.73769 4.0322 8.75568 3.94697 8.75568 3.85795C8.75568 3.75568 8.73106 3.66714 8.68182 3.59233C8.63352 3.51752 8.56723 3.45975 8.48295 3.41903C8.39867 3.37831 8.30398 3.35795 8.19886 3.35795C8.08712 3.35795 7.98958 3.38116 7.90625 3.42756C7.82386 3.47301 7.75994 3.53693 7.71449 3.61932C7.66998 3.7017 7.64773 3.7983 7.64773 3.90909H7.3125C7.3125 3.73864 7.3518 3.58902 7.4304 3.46023C7.509 3.33144 7.616 3.23106 7.75142 3.15909C7.88778 3.08712 8.04072 3.05114 8.21023 3.05114C8.38068 3.05114 8.53172 3.08712 8.66335 3.15909C8.79498 3.23106 8.8982 3.32812 8.97301 3.45028C9.04782 3.57244 9.08523 3.70833 9.08523 3.85795C9.08523 3.96496 9.06581 4.0696 9.02699 4.17188C8.98911 4.2732 8.92282 4.38636 8.82812 4.51136C8.73438 4.63542 8.60417 4.78693 8.4375 4.96591L7.78409 5.66477V5.6875H9.13636V6H7.30114Z" fill="black"/>
</svg>
