<svg width="10" height="13" viewBox="0 0 10 13" fill="none" xmlns="http://www.w3.org/2000/svg">
    <path d="M1.4375 3L3.5 6.32812H3.5625L5.625 3H6.76562L4.25 7L6.76562 11H5.625L3.5625 7.73438H3.5L1.4375 11H0.296875L2.875 7L0.296875 3H1.4375Z" fill="black"/>
    <path d="M7.30114 11V10.7443L8.26136 9.69318C8.37405 9.57008 8.46686 9.46307 8.53977 9.37216C8.61269 9.2803 8.66667 9.19413 8.7017 9.11364C8.73769 9.0322 8.75568 8.94697 8.75568 8.85795C8.75568 8.75568 8.73106 8.66714 8.68182 8.59233C8.63352 8.51752 8.56723 8.45975 8.48295 8.41903C8.39867 8.37831 8.30398 8.35795 8.19886 8.35795C8.08712 8.35795 7.98958 8.38116 7.90625 8.42756C7.82386 8.47301 7.75994 8.53693 7.71449 8.61932C7.66998 8.7017 7.64773 8.7983 7.64773 8.90909H7.3125C7.3125 8.73864 7.3518 8.58902 7.4304 8.46023C7.509 8.33144 7.616 8.23106 7.75142 8.15909C7.88778 8.08712 8.04072 8.05114 8.21023 8.05114C8.38068 8.05114 8.53172 8.08712 8.66335 8.15909C8.79498 8.23106 8.8982 8.32812 8.97301 8.45028C9.04782 8.57244 9.08523 8.70833 9.08523 8.85795C9.08523 8.96496 9.06581 9.0696 9.02699 9.17188C8.98911 9.2732 8.92282 9.38636 8.82812 9.51136C8.73438 9.63542 8.60417 9.78693 8.4375 9.96591L7.78409 10.6648V10.6875H9.13636V11H7.30114Z" fill="black"/>
</svg>
